<?xml version="1.0" encoding="iso-8859-1"?>
<!-- Uploaded to: SVG Repo, www.svgrepo.com, Generator: SVG Repo Mixer Tools -->
<svg height="800px" width="800px" version="1.1" id="Layer_1" xmlns="http://www.w3.org/2000/svg" xmlns:xlink="http://www.w3.org/1999/xlink" 
	 viewBox="0 0 328.803 328.803" xml:space="preserve">
<g id="XMLID_1017_">
	<g id="XMLID_1018_">
		<g id="XMLID_1074_">
			<path id="XMLID_1075_" style="fill:#D0BFFF;" d="M284.382,288.122v40.681H44.419v-40.681c0-30.431,17.377-56.963,40.605-70.913
				c6.043-3.641,19.69-6.43,26.844-8.196c5.953-1.488,12.254-2.272,18.842-2.272l34.596,24.002l33.691-24.002
				c6.588,0,14.983,0.784,20.937,2.272c7.154,1.766,17.802,4.554,23.844,8.196C267.005,231.159,284.382,257.691,284.382,288.122z"/>
		</g>
		<path id="XMLID_1076_" style="fill:#BEADFA;" d="M243.777,217.208c-6.042-3.641-16.69-6.429-23.844-8.196
			c-5.953-1.488-14.348-2.272-20.937-2.272l-33.691,24.001l-0.906-0.628v98.688h119.982V288.12
			C284.382,257.691,267.005,231.159,243.777,217.208z"/>
	</g>
	<g id="XMLID_1077_">
		<g id="XMLID_1078_">
			<path id="XMLID_1079_" style="fill:#D0BFFF;" d="M247.589,233.25c-18.667-6.681-51.458-11.736-51.458-81.376h-29.23h-5.002
				h-29.23c0,69.64-32.791,74.695-51.458,81.376c0,47.368,68.832,48.824,80.688,53.239v1.537c0,0,0.922-0.188,2.501-0.68
				c1.579,0.492,2.501,0.68,2.501,0.68v-1.537C178.757,282.075,247.589,280.618,247.589,233.25z"/>
		</g>
		<path id="XMLID_1080_" style="fill:#BEADFA;" d="M196.131,151.874h-29.23H164.4v135.472c1.579,0.492,2.501,0.68,2.501,0.68v-1.537
			c11.856-4.414,80.688-5.871,80.688-53.238C228.922,226.569,196.131,221.515,196.131,151.874z"/>
	</g>
	<g id="XMLID_1081_">
		<path id="XMLID_1082_" style="fill:#D7734A;" d="M88.734,304.026v24.777h146.667v-24.777h49.435v-15.904
			c0-30.431-17.377-56.963-40.605-70.914c-3.929-2.368-11.069-4.793-17.552-6.689c-8.072,24.392-32.894,42.159-62.277,42.159
			s-54.205-17.768-62.277-42.159c-6.484,1.896-13.623,4.321-17.552,6.689c-23.228,13.951-40.605,40.482-40.605,70.914v15.904H88.734
			z"/>
		<path id="XMLID_1083_" style="fill:#D35D3B;" d="M244.23,217.208c-3.929-2.368-11.069-4.793-17.552-6.689
			c-8.072,24.392-32.894,42.159-62.277,42.159v76.124h71v-24.777h49.435v-15.904C284.835,257.691,267.458,231.159,244.23,217.208z"
			/>
	</g>
	<path id="XMLID_42_" style="fill:#FFE477;" d="M214.323,311.362h-9.045c-8.057,0-14.589-6.532-14.589-14.589v-19.258h38.224v19.258
		C228.912,304.83,222.38,311.362,214.323,311.362z"/>
	<g id="XMLID_1084_">
		<g id="XMLID_1085_">
			<path id="XMLID_1086_" style="fill:#D0BFFF;" d="M164.402,176.828c-27.454,0-48.409-23.119-57.799-40.456
				s-15.888-79.445,4.34-106.897c19.808-26.883,53.459-13.838,53.459-13.838s33.649-13.045,53.458,13.838
				c20.226,27.452,13.726,89.56,4.335,106.897C212.803,153.709,191.851,176.828,164.402,176.828z"/>
		</g>
		<path id="XMLID_1087_" style="fill:#BEADFA;" d="M217.86,29.475c-19.81-26.883-53.458-13.838-53.458-13.838H164.4v161.192
			c0.001,0,0.001,0,0.002,0c27.449,0,48.401-23.119,57.794-40.456C231.586,119.036,238.087,56.928,217.86,29.475z"/>
	</g>
	<g id="XMLID_1088_">
		<g id="XMLID_1089_">
			<path id="XMLID_1090_" style="fill:#682234;" d="M221.855,25.321c-2.159,0.08-12.282-31.303-39.282-24.303
				c-18.537,4.806-20.877,7.419-28.12,9.463c-29.41-9.014-57.539,14.472-56.495,36.488c1.759,37.07-4.778,36.505-0.295,49.454
				s8.466,23.407,8.466,23.407s0.996,3.565,2.988-16.854s-4.705-31.379,11.137-31.379c52.452,0-19.698,20.372,13.952,20.372
				c33.391,0,59.203-27.381,74.92-29.372c15.716-1.992,9.145,19.96,11.137,40.379s2.988,16.854,2.988,16.854
				s8.92-9.712,8.466-23.407C231.207,80.969,238.087,24.719,221.855,25.321z"/>
		</g>
		<path id="XMLID_1091_" style="fill:#581A2B;" d="M221.855,25.322c-2.159,0.08-12.282-31.303-39.282-24.303
			c-9.171,2.378-14.375,4.218-18.173,5.719V85.04c18.973-8.253,34.142-21.102,44.726-22.443c15.717-1.992,9.145,19.96,11.137,40.379
			s2.988,16.854,2.988,16.854s8.92-9.712,8.466-23.407C231.207,80.969,238.087,24.719,221.855,25.322z"/>
	</g>
	<g id="XMLID_1092_">
		
			<ellipse id="XMLID_33_" transform="matrix(0.3543 0.9351 -0.9351 0.3543 168.0483 -25.13)" style="fill:#D0BFFF;" cx="102.222" cy="109.124" rx="17.187" ry="10.048"/>
		
			<ellipse id="XMLID_32_" transform="matrix(0.3543 -0.9351 0.9351 0.3543 44.2591 282.3312)" style="fill:#BEADFA;" cx="226.574" cy="109.116" rx="17.187" ry="10.048"/>
	</g>
</g>
</svg>