<?xml version="1.0" encoding="iso-8859-1"?>
<!-- Uploaded to: SVG Repo, www.svgrepo.com, Generator: SVG Repo Mixer Tools -->
<svg height="800px" width="800px" version="1.1" id="Layer_1" xmlns="http://www.w3.org/2000/svg" xmlns:xlink="http://www.w3.org/1999/xlink" 
	 viewBox="0 0 333.549 333.549" xml:space="preserve">
<g id="XMLID_8_">
	<g id="XMLID_66_">
		<path id="XMLID_1095_" style="fill:#C4D7B2;" d="M249.963,237.405c-18.667-6.681-51.458-11.736-51.458-81.376h-29.23h-5.002
			h-29.23c0,69.64-32.791,74.695-51.458,81.376c0,47.368,68.832,48.824,80.688,53.239v1.537c0,0,0.922-0.188,2.501-0.68
			c1.579,0.492,2.501,0.68,2.501,0.68v-1.537C181.13,286.23,249.963,284.773,249.963,237.405z"/>
		<path id="XMLID_1096_" style="fill:#A0C49D;" d="M198.505,156.03h-29.23h-2.167v135.573c1.37,0.414,2.167,0.579,2.167,0.579
			v-1.537c11.856-4.414,80.688-5.871,80.688-53.239C231.296,230.725,198.505,225.669,198.505,156.03z"/>
	</g>
	<g id="XMLID_63_">
		<path id="XMLID_1097_" style="fill:#C4D7B2;" d="M166.776,178.782c-27.454,0-48.409-23.119-57.799-40.456
			s-15.888-69.445,4.34-96.897c19.808-26.883,53.459-23.838,53.459-23.838s33.649-3.045,53.458,23.838
			c20.226,27.452,13.726,79.56,4.335,96.897C215.177,155.663,194.224,178.782,166.776,178.782z"/>
		<path id="XMLID_1098_" style="fill:#A0C49D;" d="M220.234,41.429c-18.683-25.354-49.661-24.088-53.127-23.862v161.206
			c27.285-0.186,48.108-23.181,57.462-40.447C233.96,120.989,240.46,68.882,220.234,41.429z"/>
	</g>
	<g id="XMLID_59_">
		<g id="XMLID_1099_">
			<path id="XMLID_1100_" style="fill:#DFE0F2;" d="M286.756,292.867v40.681H46.792v-40.681c0-30.431,17.377-56.963,40.605-70.913
				c6.043-3.641,19.69-6.43,26.844-8.196c5.953-1.488,52.866,21.691,52.866,21.691s49.246-23.179,55.199-21.691
				c7.154,1.766,17.802,4.554,23.844,8.196C269.379,235.904,286.756,262.436,286.756,292.867z"/>
		</g>
		<path id="XMLID_1101_" style="fill:#C6C8D7;" d="M246.151,221.954c-6.043-3.641-16.69-6.429-23.844-8.195
			c-5.678-1.42-51.05,19.746-55.199,21.691v98.099h119.648v-40.681C286.756,262.436,269.379,235.904,246.151,221.954z"/>
	</g>
	<g id="XMLID_54_">
		<g id="XMLID_1102_">
			<path id="XMLID_1103_" style="fill:#FFFFFF;" d="M122.774,235.314c-4.437,1.603-18.333-21.333-6.833-26.833l50.167,26.505
				C166.107,234.985,133.736,231.354,122.774,235.314z"/>
		</g>
		<g id="XMLID_1104_">
			<path id="XMLID_56_" style="fill:#DEDDE0;" d="M211.441,235.314c4.437,1.603,18.333-21.333,6.833-26.833l-50.167,26.505
				C168.107,234.985,200.478,231.354,211.441,235.314z"/>
		</g>
	</g>
	<g id="XMLID_46_">
		<g id="XMLID_1105_">
			<path id="XMLID_1108_" style="fill:#367992;" d="M246.604,221.624c-2.201-1.327-5.416-2.538-8.954-3.63
				c-3.631-1.308-7.562-2.436-11.147-3.38c-2.841,30.494-28.492,54.367-59.728,54.367c-31.096,0-56.665-23.657-59.697-53.955
				c-7.077,1.69-15.672,3.91-20.133,6.599c-23.228,13.951-40.605,40.482-40.605,70.914v40.681h120.887h119.076h0.906v-40.681
				C287.208,262.107,269.831,235.575,246.604,221.624z"/>
		</g>
		<path id="XMLID_1111_" style="fill:#2F697E;" d="M246.604,221.625c-2.201-1.327-5.416-2.538-8.954-3.63
			c-3.631-1.308-7.562-2.436-11.147-3.38c-2.831,30.385-28.31,54.188-59.395,54.359v64.246h0.12h119.076h0.906v-40.681
			C287.208,262.107,269.831,235.575,246.604,221.625z"/>
	</g>
	<g id="XMLID_37_">
		<g id="XMLID_1112_">
			<path id="XMLID_1113_" style="fill:#2C2B2B;" d="M191.052,135.913c-13.237,0-19.616-9.66-24.254-16.87
				c-0.231,0.383-0.464,0.772-0.701,1.168c-4.188,6.995-9.399,15.702-23.601,15.702c-15.926,0-27.486-11.392-27.486-27.088v-0.414
				l0.078-0.408c0.424-2.204,2.991-13.202,11.937-13.202h26.208c1.872,0,3.755,0.408,5.446,1.179l0.64,0.292l7.456,6.321
				l7.455-6.321l0.64-0.292c1.691-0.771,3.574-1.179,5.446-1.179h26.209c8.945,0,11.512,10.997,11.936,13.202l0.078,0.408v0.414
				C218.538,124.52,206.978,135.913,191.052,135.913z M172.71,110.16l1.168,1.778c0.439,0.668,0.877,1.349,1.32,2.037
				c5.048,7.851,8.634,12.617,15.854,12.617c10.151,0,17.284-7.103,17.481-17.33c-0.485-2.106-1.558-4.465-2.338-5.141h-25.88
				c-0.188,0-0.375,0.021-0.557,0.063L172.71,110.16z M125.014,109.254c0.194,10.232,7.328,17.338,17.482,17.338
				c7.943,0,10.692-3.946,14.868-10.922c0.733-1.225,1.491-2.491,2.306-3.733l1.168-1.779l-7.048-5.975
				c-0.182-0.042-0.368-0.063-0.557-0.063h-25.88C126.572,104.799,125.485,107.185,125.014,109.254z"/>
		</g>
		<path id="XMLID_1117_" style="fill:#272525;" d="M218.46,108.003c-0.424-2.205-2.991-13.202-11.936-13.202h-26.209
			c-1.872,0-3.755,0.408-5.446,1.179l-0.64,0.292l-7.122,6.039v17.211c4.614,7.151,10.995,16.391,23.945,16.391
			c15.926,0,27.486-11.393,27.486-27.088v-0.414L218.46,108.003z M191.052,126.593c-7.221,0-10.807-4.767-15.854-12.618
			c-0.442-0.688-0.881-1.369-1.32-2.037l-1.168-1.778l7.048-5.976c0.182-0.042,0.368-0.063,0.557-0.063h25.88
			c0.781,0.676,1.853,3.036,2.338,5.142C208.336,119.49,201.203,126.593,191.052,126.593z"/>
	</g>
	<g id="XMLID_34_">
		<path id="XMLID_36_" style="fill:#682234;" d="M202.113,25.918c0,0-24.427-32.813-39.707-24.598
			c-39.045,20.991-44.219,18.365-52.979,21.408c-21.241,7.378-21.798-2.595-19.122,13.776c8.879,54.319-0.557,79.337,15.961,59.147
			s22.025-15.423,64.073-20.012s15.256-23.363,37.28-8.18s24.919,42.732,28.589,42.732c3.671,0,11.84-52.59,6.283-68.911
			C230.629,6.439,202.113,25.918,202.113,25.918z"/>
		<path id="XMLID_1120_" style="fill:#581A2B;" d="M242.491,41.281c-11.862-34.842-40.378-15.362-40.378-15.362
			s-19.894-26.72-35.005-25.896V75.98c1.057-0.108,2.124-0.219,3.231-0.34c42.047-4.588,15.256-23.363,37.28-8.18
			c22.025,15.184,24.919,42.732,28.589,42.732S248.048,57.603,242.491,41.281z"/>
	</g>
	<g id="XMLID_9_">
		
			<ellipse id="XMLID_33_" transform="matrix(0.3543 0.9351 -0.9351 0.3543 171.4079 -26.089)" style="fill:#C4D7B2;" cx="104.596" cy="111.077" rx="17.187" ry="10.048"/>
		
			<ellipse id="XMLID_32_" transform="matrix(0.3543 -0.9351 0.9351 0.3543 43.9645 285.8114)" style="fill:#A0C49D;" cx="228.947" cy="111.07" rx="17.187" ry="10.048"/>
	</g>
</g>
</svg>