<?xml version="1.0" encoding="iso-8859-1"?>
<!-- Uploaded to: SVG Repo, www.svgrepo.com, Generator: SVG Repo Mixer Tools -->
<svg version="1.1" id="Layer_1" xmlns="http://www.w3.org/2000/svg" xmlns:xlink="http://www.w3.org/1999/xlink" 
	 viewBox="0 0 333.549 333.549" xml:space="preserve">
<g id="XMLID_1337_">
	<g id="XMLID_1338_">
		<g id="XMLID_1339_">
			<path id="XMLID_1340_" style="fill:#C4D7B2;" d="M260.026,237.405c-18.667-6.681-61.458-11.736-61.458-81.376h-29.23h-5.002
				h-29.23c0,69.64-42.791,74.695-61.458,81.376c0,47.368,78.832,48.824,90.688,53.239v1.537c0,0,0.922-0.188,2.501-0.68
				c1.579,0.492,2.501,0.68,2.501,0.68v-1.537C181.194,286.23,260.026,284.773,260.026,237.405z"/>
		</g>
		<path id="XMLID_1341_" style="fill:#A0C49D;" d="M198.568,156.03h-29.23h-2.376v135.509c1.499,0.462,2.376,0.642,2.376,0.642
			v-1.537c11.856-4.414,90.688-5.871,90.688-53.239C241.359,230.725,198.568,225.669,198.568,156.03z"/>
	</g>
	<g id="XMLID_1342_">
		<g id="XMLID_1343_">
			<path id="XMLID_1344_" style="fill:#C4D7B2;" d="M166.839,178.782c-27.454,0-48.409-23.119-57.799-40.456
				s-15.888-69.445,4.34-96.897c19.808-26.883,53.459-23.838,53.459-23.838s33.649-3.045,53.458,23.838
				c20.226,27.452,13.726,79.56,4.335,96.897C215.24,155.663,194.288,178.782,166.839,178.782z"/>
		</g>
		<path id="XMLID_1345_" style="fill:#A0C49D;" d="M220.298,41.429c-19.134-25.966-51.172-24.012-53.335-23.848v161.197
			c27.388-0.069,48.292-23.142,57.671-40.452C234.023,120.989,240.524,68.882,220.298,41.429z"/>
	</g>
	<g id="XMLID_1346_">
		<g id="XMLID_1347_">
			<path id="XMLID_52_" style="fill:#682234;" d="M201.509,25.918c0,0-24.427-32.813-39.707-24.598
				c-39.045,20.991-44.219,18.365-52.979,21.408c-21.241,7.377-21.798-2.595-19.122,13.776c8.879,54.319-0.557,79.337,15.961,59.147
				s22.025-15.423,64.073-20.012s15.256-23.363,37.28-8.18s24.919,42.732,28.589,42.732c3.671,0,11.84-52.59,6.283-68.911
				C230.025,6.439,201.509,25.918,201.509,25.918z"/>
		</g>
		<path id="XMLID_1348_" style="fill:#581A2B;" d="M241.888,41.281C230.026,6.439,201.51,25.919,201.51,25.919
			S182.015-0.266,166.963,0.005v75.926c0.913-0.095,1.823-0.188,2.773-0.292c42.047-4.588,15.256-23.363,37.28-8.18
			c22.025,15.184,24.919,42.732,28.589,42.732C239.276,110.192,247.445,57.603,241.888,41.281z"/>
	</g>
	<g id="XMLID_1349_">
		<g id="XMLID_1350_">
			<path id="XMLID_1353_" style="fill:#66A299;" d="M286.819,292.867l-0.125,40.681H46.731l0.125-40.681
				c0-30.431,17.377-56.963,40.605-70.913c6.043-3.641,23.69-6.43,30.844-8.196c5.953-1.488,48.642,41.766,48.642,41.766
				s45.47-43.254,51.423-41.766c7.154,1.766,21.802,4.554,27.844,8.196C269.442,235.904,286.819,262.436,286.819,292.867z"/>
		</g>
		<path id="XMLID_1356_" style="fill:#5A9291;" d="M246.105,221.954c-6.043-3.641-20.69-6.429-27.844-8.195
			c-5.953-1.488-51.314,41.766-51.314,41.766l-0.094,78.024H286.71v-40.681C286.71,262.436,269.333,235.904,246.105,221.954z"/>
	</g>
	<g id="XMLID_1357_">
		<rect id="XMLID_40_" x="197.287" y="292.65" style="fill:#B7CAE9;" width="52" height="11.333"/>
		<rect id="XMLID_39_" x="202.955" y="299.984" style="fill:#B7CAE9;" width="40.664" height="26"/>
	</g>
	<g id="XMLID_1358_">
		<g id="XMLID_1359_">
			<path id="XMLID_1360_" style="fill:#A7B8D4;" d="M208.832,99.567h-27.689c-1.185,0-2.356,0.243-3.431,0.713l-10.874,3.873
				l-10.874-3.873c-1.075-0.47-2.246-0.713-3.431-0.713h-27.688c-5.509,0-7.411,9.474-7.411,9.474
				c0,12.532,9.191,22.692,23.756,22.692c8.882,0,17.409-9.44,22.649-17.081h6c5.24,7.641,13.768,17.081,22.649,17.081
				c14.565,0,23.756-10.16,23.756-22.692C216.242,109.042,214.341,99.567,208.832,99.567z"/>
		</g>
		<path id="XMLID_1361_" style="fill:#8AA4C2;" d="M208.832,99.567h-27.689c-1.185,0-2.356,0.243-3.431,0.713l-10.749,3.829v10.544
			h2.875c5.24,7.641,13.768,17.081,22.649,17.081c14.565,0,23.756-10.16,23.756-22.692
			C216.242,109.042,214.341,99.567,208.832,99.567z"/>
	</g>
	<g id="XMLID_1362_">
		
			<ellipse id="XMLID_33_" transform="matrix(0.3543 -0.9351 0.9351 0.3543 44.0056 285.8713)" style="fill:#A0C49D;" cx="229.011" cy="111.07" rx="17.187" ry="10.048"/>
		
			<ellipse id="XMLID_32_" transform="matrix(0.3543 0.9351 -0.9351 0.3543 171.4488 -26.1479)" style="fill:#C4D7B2;" cx="104.659" cy="111.077" rx="17.187" ry="10.048"/>
	</g>
</g>
</svg>