<?xml version="1.0" encoding="iso-8859-1"?>
<!-- Uploaded to: SVG Repo, www.svgrepo.com, Generator: SVG Repo Mixer Tools -->
<svg height="800px" width="800px" version="1.1" id="Layer_1" xmlns="http://www.w3.org/2000/svg" xmlns:xlink="http://www.w3.org/1999/xlink" 
	 viewBox="0 0 362.698 362.698" xml:space="preserve">
<g id="XMLID_10_">
	<g id="XMLID_57_">
		<g id="XMLID_1033_">
			<path id="XMLID_1036_" style="fill:#A0756F;" d="M280.835,191.787c26.39-24.059,11.154-28.579,11.154-50.517
				C291.989,59.796,249.243,0,181.349,0S70.709,59.796,70.709,141.269c0,21.938-15.236,26.458,11.154,50.517
				C118.622,225.3,244.076,225.3,280.835,191.787z"/>
		</g>
		<path id="XMLID_1039_" style="fill:#8C6762;" d="M291.989,141.269C291.989,59.796,249.243,0,181.349,0v216.922
			c40.553,0,81.106-8.378,99.486-25.135C307.225,167.728,291.989,163.207,291.989,141.269z"/>
	</g>
	<g id="XMLID_54_">
		<path id="XMLID_1040_" style="fill:#5BCEFA;" d="M298.331,321.56v40.681H64.367V321.56c0-30.431,14.377-56.963,37.605-70.913
			c6.043-3.641,12.69-6.43,19.844-8.196c5.953-1.488,12.254-2.272,18.842-2.272l40.691,24.002l40.691-24.002
			c6.588,0,12.889,0.784,18.842,2.272c7.154,1.766,13.802,4.554,19.844,8.196C283.953,264.597,298.331,291.129,298.331,321.56z"/>
		<path id="XMLID_1041_" style="fill:#48A4C8;" d="M260.726,250.646c-6.042-3.641-12.69-6.429-19.844-8.196
			c-5.953-1.489-12.254-2.272-18.842-2.272l-40.691,24.001l0,0v98.06h116.982V321.56
			C298.331,291.129,283.953,264.597,260.726,250.646z"/>
	</g>
	<g id="XMLID_51_">
		<path id="XMLID_1042_" style="fill:#5BCEFA;" d="M224.537,266.688c0,0-14.458-18.417-14.458-81.376h-26.23h-5.002h-26.23
			c0,62.959-14.458,81.376-14.458,81.376c0,47.368,28.832,48.824,40.688,53.239v1.537c0,0,0.922-0.188,2.501-0.68
			c1.579,0.492,2.501,0.68,2.501,0.68v-1.537C195.705,315.513,224.537,314.056,224.537,266.688z"/>
		<path id="XMLID_1043_" style="fill:#48A4C8;" d="M210.08,185.313h-26.23h-2.501v135.471c1.579,0.492,2.501,0.68,2.501,0.68v-1.537
			c11.856-4.414,40.688-5.871,40.688-53.239C224.538,266.688,210.08,248.272,210.08,185.313z"/>
	</g>
	<g id="XMLID_44_">
		<path id="XMLID_1046_" style="fill:#545465;" d="M216.823,271.698h-70.949c0,0-38.633,39.377-44.526,56.333
			c-2.845,8.186,0,34.667,0,34.667h160v-34.667L216.823,271.698z"/>
		<polygon id="XMLID_1049_" style="fill:#494857;" points="216.823,271.698 181.349,271.698 181.349,362.698 261.349,362.698 
			261.349,328.031 		"/>
	</g>
	<g id="XMLID_37_">
		<path id="XMLID_1052_" style="fill:#545465;" d="M229.361,237.381c-4.283-3.518-8.405-4.966-15.202-4.541l-32.779,26.072
			l-32.841-26.072c-6.797-0.424-10.919,1.023-15.202,4.541c-10.252,8.421,13.904,38.13,29.281,50.761
			c12.163,9.991,8.599,1.249,19.637-6.385c11.038,7.634,5.662,16.376,17.825,6.385C215.457,275.511,239.613,245.802,229.361,237.381
			z"/>
		<path id="XMLID_1055_" style="fill:#494857;" d="M229.361,237.381c-4.283-3.518-8.405-4.966-15.202-4.542l-32.779,26.072
			l-0.031,23.501c0.292-0.219,0.591-0.438,0.906-0.655c11.038,7.634,5.662,16.376,17.826,6.385
			C215.457,275.511,239.613,245.802,229.361,237.381z"/>
	</g>
	<g id="XMLID_34_">
		<path id="XMLID_1056_" style="fill:#FF628B;" d="M204.851,266.154l-23.502,12.495l-23.502-12.495
			c-4.638-2.071-10.436,0.518-10.436,4.66v26.824c0,4.142,5.798,6.731,10.436,4.66l23.502-12.495l23.502,12.495
			c4.638,2.071,10.436-0.518,10.436-4.66v-26.824C215.287,266.672,209.489,264.083,204.851,266.154z"/>
		<path id="XMLID_1057_" style="fill:#C85279;" d="M204.851,266.154l-23.502,12.495v11.154l23.502,12.495
			c4.638,2.071,10.436-0.518,10.436-4.66v-26.823C215.287,266.672,209.489,264.083,204.851,266.154z"/>
	</g>
	<g id="XMLID_11_">
		<path id="XMLID_1058_" style="fill:#5BCEFA;" d="M117.266,120.925c0.84,22.166,4.35,42.212,8.428,49.74
			c9.042,16.694,29.221,38.957,55.657,38.957c26.431,0,46.607-22.262,55.652-38.957c4.077-7.528,7.588-27.573,8.429-49.74H117.266z"
			/>
		<path id="XMLID_1059_" style="fill:#48A4C8;" d="M181.349,120.925v88.696c0,0,0.001,0,0.002,0
			c26.431,0,46.607-22.262,55.652-38.957c4.077-7.528,7.588-27.573,8.429-49.74h-64.083V120.925z"/>
	</g>
</g>
</svg>