<?xml version="1.0" encoding="iso-8859-1"?>
<!-- Uploaded to: SVG Repo, www.svgrepo.com, Generator: SVG Repo Mixer Tools -->
<svg height="800px" width="800px" version="1.1" id="Layer_1" xmlns="http://www.w3.org/2000/svg" xmlns:xlink="http://www.w3.org/1999/xlink" 
	 viewBox="0 0 344.709 344.709" xml:space="preserve">
<g id="XMLID_33_">
	<g id="XMLID_46_">
		<path id="XMLID_49_" style="fill:#A0756F;" d="M286.98,200.531c-0.153-3.687-0.344-7.335-0.558-10.906
			c-1.286-21.429-3.429-40.129-3.429-48.356c0-1.272-0.011-2.539-0.031-3.8c-0.003-0.174-0.01-0.346-0.013-0.52
			c-0.02-1.083-0.045-2.165-0.08-3.24c-0.013-0.399-0.034-0.795-0.049-1.193c-0.033-0.847-0.063-1.695-0.105-2.537
			c-0.023-0.459-0.054-0.914-0.08-1.371c-0.044-0.775-0.084-1.551-0.136-2.321c-0.037-0.549-0.083-1.092-0.123-1.638
			c-0.05-0.673-0.096-1.348-0.153-2.017c-0.05-0.597-0.11-1.188-0.165-1.783c-0.057-0.614-0.109-1.23-0.171-1.84
			c-0.062-0.609-0.134-1.213-0.201-1.819c-0.065-0.588-0.126-1.18-0.196-1.765c-0.075-0.626-0.159-1.247-0.24-1.869
			c-0.072-0.559-0.14-1.121-0.216-1.677c-0.088-0.639-0.186-1.272-0.279-1.907c-0.079-0.533-0.153-1.069-0.235-1.6
			c-0.103-0.661-0.216-1.316-0.326-1.973c-0.083-0.497-0.161-0.998-0.247-1.493c-0.12-0.686-0.249-1.365-0.376-2.045
			c-0.086-0.46-0.166-0.922-0.255-1.38c-0.135-0.697-0.28-1.387-0.422-2.079c-0.09-0.435-0.174-0.874-0.267-1.307
			c-0.152-0.715-0.315-1.422-0.475-2.131c-0.091-0.403-0.177-0.809-0.271-1.21c-0.169-0.725-0.348-1.443-0.525-2.161
			c-0.094-0.379-0.182-0.762-0.278-1.139c-0.185-0.728-0.379-1.448-0.572-2.17c-0.097-0.362-0.189-0.727-0.288-1.087
			c-0.202-0.735-0.413-1.463-0.624-2.192c-0.098-0.339-0.192-0.681-0.291-1.018c-0.221-0.746-0.451-1.483-0.681-2.222
			c-0.098-0.314-0.191-0.631-0.29-0.943c-0.239-0.75-0.487-1.492-0.735-2.235c-0.098-0.294-0.192-0.591-0.292-0.884
			c-0.26-0.764-0.53-1.519-0.8-2.274c-0.094-0.264-0.185-0.531-0.281-0.794c-0.28-0.77-0.57-1.532-0.86-2.293
			c-0.093-0.243-0.182-0.489-0.276-0.73c-0.302-0.779-0.613-1.55-0.926-2.319c-0.088-0.217-0.173-0.437-0.262-0.653
			c-0.321-0.779-0.652-1.55-0.985-2.319c-0.087-0.201-0.171-0.406-0.259-0.606c-0.344-0.785-0.696-1.561-1.052-2.334
			c-0.082-0.178-0.161-0.359-0.243-0.537c-0.364-0.784-0.737-1.559-1.113-2.332c-0.079-0.163-0.156-0.329-0.236-0.491
			c-0.386-0.784-0.78-1.559-1.178-2.331c-0.075-0.145-0.147-0.293-0.222-0.437c-0.407-0.782-0.822-1.554-1.241-2.323
			c-0.071-0.131-0.14-0.264-0.212-0.394c-0.429-0.781-0.867-1.552-1.309-2.319c-0.065-0.113-0.129-0.229-0.195-0.342
			c-0.453-0.78-0.914-1.55-1.38-2.316c-0.059-0.096-0.115-0.194-0.174-0.29c-0.478-0.78-0.964-1.55-1.456-2.314
			c-0.05-0.078-0.099-0.158-0.149-0.236c-0.501-0.775-1.01-1.541-1.526-2.3c-0.044-0.065-0.086-0.131-0.13-0.195
			c-0.522-0.766-1.052-1.521-1.588-2.27c-0.04-0.056-0.079-0.113-0.119-0.169c-0.546-0.76-1.101-1.511-1.662-2.253
			c-0.031-0.041-0.061-0.083-0.092-0.124c-0.568-0.75-1.145-1.49-1.728-2.222c-0.026-0.033-0.052-0.067-0.078-0.099
			c-0.592-0.742-1.193-1.474-1.8-2.197c-0.017-0.021-0.034-0.042-0.052-0.063c-0.615-0.731-1.238-1.451-1.869-2.162
			c-0.011-0.013-0.022-0.026-0.033-0.038c-0.636-0.716-1.279-1.422-1.93-2.118c-0.007-0.007-0.014-0.015-0.021-0.022
			C227.229,11.581,202.227,0,172.354,0C104.46,0,61.714,59.796,61.714,141.269c0,21.938-15.236,118.348,11.154,142.407
			c23.076,21.038,81.103,28.866,130.2,23.49c0.019-0.002,0.037-0.004,0.056-0.006c1.193-0.131,2.38-0.269,3.561-0.416
			c0.029-0.004,0.057-0.007,0.085-0.011c1.17-0.145,2.334-0.298,3.491-0.459c0.048-0.007,0.095-0.014,0.143-0.021
			c1.137-0.159,2.268-0.324,3.392-0.497c0.07-0.011,0.139-0.022,0.208-0.033c1.101-0.171,2.197-0.348,3.284-0.533
			c0.091-0.015,0.18-0.032,0.27-0.048c1.063-0.182,2.121-0.37,3.17-0.566c0.122-0.023,0.242-0.047,0.364-0.07
			c1.016-0.191,2.027-0.388,3.028-0.592c0.146-0.03,0.289-0.062,0.434-0.091c0.974-0.201,1.944-0.406,2.903-0.619
			c0.169-0.038,0.335-0.078,0.504-0.116c0.93-0.209,1.855-0.422,2.77-0.642c0.201-0.049,0.398-0.1,0.599-0.149
			c0.878-0.215,1.753-0.432,2.616-0.658c0.221-0.058,0.437-0.119,0.657-0.177c0.837-0.222,1.671-0.447,2.493-0.679
			c0.237-0.067,0.468-0.138,0.704-0.206c0.796-0.229,1.59-0.46,2.371-0.698c0.262-0.08,0.517-0.164,0.777-0.245
			c0.746-0.233,1.491-0.466,2.223-0.707c0.284-0.094,0.561-0.192,0.843-0.288c0.697-0.235,1.395-0.47,2.078-0.714
			c0.304-0.108,0.598-0.222,0.899-0.331c0.651-0.238,1.303-0.474,1.94-0.719c0.319-0.122,0.627-0.251,0.942-0.375
			c0.607-0.24,1.216-0.478,1.809-0.724c0.333-0.138,0.654-0.282,0.982-0.423c0.562-0.24,1.128-0.479,1.678-0.726
			c0.34-0.153,0.668-0.312,1.003-0.467c0.523-0.242,1.051-0.482,1.562-0.73c0.35-0.17,0.686-0.347,1.03-0.52
			c0.48-0.241,0.965-0.479,1.434-0.726c0.362-0.191,0.709-0.389,1.064-0.583c0.434-0.237,0.875-0.471,1.297-0.713
			c0.363-0.208,0.709-0.422,1.064-0.634c0.398-0.237,0.803-0.47,1.19-0.711c0.373-0.232,0.728-0.473,1.091-0.709
			c0.35-0.228,0.709-0.452,1.049-0.683c0.392-0.267,0.764-0.542,1.144-0.814c0.293-0.21,0.597-0.416,0.882-0.629
			c0.412-0.307,0.801-0.623,1.197-0.937c0.234-0.186,0.48-0.367,0.709-0.555c0.614-0.505,1.208-1.019,1.78-1.54
			c7.01-6.391,11.083-17.886,13.284-31.735c0.259-1.629,0.492-3.291,0.701-4.981c0.731-5.915,1.167-12.174,1.38-18.584
			c0.092-2.747,0.142-5.523,0.158-8.311c0.005-0.929,0.007-1.86,0.005-2.792C287.355,211.683,287.211,206.062,286.98,200.531z"/>
		<path id="XMLID_47_" style="fill:#8C6762;" d="M286.98,200.531c-0.153-3.687-0.344-7.335-0.558-10.906
			c-1.286-21.429-3.429-40.129-3.429-48.356c0-1.272-0.011-2.539-0.031-3.8c-0.003-0.174-0.01-0.346-0.013-0.52
			c-0.02-1.083-0.045-2.165-0.08-3.24c-0.013-0.399-0.034-0.795-0.049-1.193c-0.033-0.847-0.063-1.695-0.105-2.537
			c-0.023-0.459-0.054-0.914-0.08-1.371c-0.044-0.775-0.084-1.551-0.136-2.321c-0.037-0.549-0.083-1.092-0.123-1.638
			c-0.05-0.673-0.096-1.348-0.153-2.017c-0.05-0.597-0.11-1.188-0.165-1.783c-0.057-0.614-0.109-1.23-0.171-1.84
			c-0.062-0.609-0.134-1.213-0.201-1.819c-0.065-0.588-0.126-1.18-0.196-1.765c-0.075-0.626-0.159-1.247-0.24-1.869
			c-0.072-0.559-0.14-1.121-0.216-1.677c-0.088-0.639-0.186-1.272-0.279-1.907c-0.079-0.533-0.153-1.069-0.235-1.6
			c-0.103-0.661-0.216-1.316-0.326-1.973c-0.083-0.497-0.161-0.998-0.247-1.493c-0.12-0.686-0.249-1.365-0.376-2.045
			c-0.086-0.46-0.166-0.922-0.255-1.38c-0.135-0.697-0.28-1.387-0.422-2.079c-0.09-0.435-0.174-0.874-0.267-1.307
			c-0.152-0.715-0.315-1.422-0.475-2.131c-0.091-0.403-0.177-0.809-0.271-1.21c-0.169-0.725-0.348-1.443-0.525-2.161
			c-0.094-0.379-0.182-0.762-0.278-1.139c-0.185-0.728-0.379-1.448-0.572-2.17c-0.097-0.362-0.189-0.727-0.288-1.087
			c-0.202-0.735-0.413-1.463-0.624-2.192c-0.098-0.339-0.192-0.681-0.291-1.018c-0.221-0.746-0.451-1.483-0.681-2.222
			c-0.098-0.314-0.191-0.631-0.29-0.943c-0.239-0.75-0.487-1.492-0.735-2.235c-0.098-0.294-0.192-0.591-0.292-0.884
			c-0.26-0.764-0.53-1.519-0.8-2.274c-0.094-0.264-0.185-0.531-0.281-0.794c-0.28-0.77-0.57-1.532-0.86-2.293
			c-0.093-0.243-0.182-0.489-0.276-0.73c-0.302-0.779-0.613-1.55-0.926-2.319c-0.088-0.217-0.173-0.437-0.262-0.653
			c-0.321-0.779-0.652-1.55-0.985-2.319c-0.087-0.201-0.171-0.406-0.259-0.606c-0.344-0.785-0.696-1.561-1.052-2.334
			c-0.082-0.178-0.161-0.359-0.243-0.537c-0.364-0.784-0.737-1.559-1.113-2.332c-0.079-0.163-0.156-0.329-0.236-0.491
			c-0.386-0.784-0.78-1.559-1.178-2.331c-0.075-0.145-0.147-0.293-0.222-0.437c-0.407-0.782-0.822-1.554-1.241-2.323
			c-0.071-0.131-0.14-0.264-0.212-0.394c-0.429-0.781-0.867-1.552-1.309-2.319c-0.065-0.113-0.129-0.229-0.195-0.342
			c-0.453-0.78-0.914-1.55-1.38-2.316c-0.059-0.096-0.115-0.194-0.174-0.29c-0.478-0.78-0.964-1.55-1.456-2.314
			c-0.05-0.078-0.099-0.158-0.149-0.236c-0.501-0.775-1.01-1.541-1.526-2.3c-0.044-0.065-0.086-0.131-0.13-0.195
			c-0.522-0.766-1.052-1.521-1.588-2.27c-0.04-0.056-0.079-0.113-0.119-0.169c-0.546-0.76-1.101-1.511-1.662-2.253
			c-0.031-0.041-0.061-0.083-0.092-0.124c-0.568-0.75-1.145-1.49-1.728-2.222c-0.026-0.033-0.052-0.067-0.078-0.099
			c-0.592-0.742-1.193-1.474-1.8-2.197c-0.017-0.021-0.034-0.042-0.052-0.063c-0.615-0.731-1.238-1.451-1.869-2.162
			c-0.011-0.013-0.022-0.026-0.033-0.038c-0.636-0.716-1.279-1.422-1.93-2.118c-0.007-0.007-0.014-0.015-0.021-0.022
			C227.229,11.581,202.227,0,172.354,0v308.799c10.361,0,20.723-0.538,30.714-1.632c0.019-0.002,0.037-0.004,0.056-0.006
			c1.193-0.131,2.38-0.269,3.561-0.416c0.029-0.004,0.057-0.007,0.085-0.011c1.17-0.145,2.334-0.298,3.491-0.459
			c0.048-0.007,0.095-0.014,0.143-0.021c1.137-0.159,2.268-0.324,3.392-0.497c0.07-0.011,0.139-0.022,0.208-0.033
			c1.101-0.171,2.197-0.348,3.284-0.533c0.091-0.015,0.18-0.032,0.27-0.048c1.063-0.182,2.121-0.37,3.17-0.566
			c0.122-0.023,0.242-0.047,0.364-0.07c1.016-0.191,2.027-0.388,3.028-0.592c0.146-0.03,0.289-0.062,0.434-0.091
			c0.974-0.201,1.944-0.406,2.903-0.619c0.169-0.038,0.335-0.078,0.504-0.116c0.93-0.209,1.855-0.422,2.77-0.642
			c0.201-0.049,0.398-0.1,0.599-0.149c0.878-0.215,1.753-0.432,2.616-0.658c0.221-0.058,0.437-0.119,0.657-0.177
			c0.837-0.222,1.671-0.447,2.493-0.679c0.237-0.067,0.468-0.138,0.704-0.206c0.796-0.229,1.59-0.46,2.371-0.698
			c0.262-0.08,0.517-0.164,0.777-0.245c0.746-0.233,1.491-0.466,2.223-0.707c0.284-0.094,0.561-0.192,0.843-0.288
			c0.697-0.235,1.395-0.47,2.078-0.714c0.304-0.108,0.598-0.222,0.899-0.331c0.651-0.238,1.303-0.474,1.94-0.719
			c0.319-0.122,0.627-0.251,0.942-0.375c0.607-0.24,1.216-0.478,1.809-0.724c0.333-0.138,0.654-0.282,0.982-0.423
			c0.562-0.24,1.128-0.479,1.678-0.726c0.34-0.153,0.668-0.312,1.003-0.467c0.523-0.242,1.051-0.482,1.562-0.73
			c0.35-0.17,0.686-0.347,1.03-0.52c0.48-0.241,0.965-0.479,1.434-0.726c0.362-0.191,0.709-0.389,1.064-0.583
			c0.434-0.237,0.875-0.471,1.297-0.713c0.363-0.208,0.709-0.422,1.064-0.634c0.398-0.237,0.803-0.47,1.19-0.711
			c0.373-0.232,0.728-0.473,1.091-0.709c0.35-0.228,0.709-0.452,1.049-0.683c0.392-0.267,0.764-0.542,1.144-0.814
			c0.293-0.21,0.597-0.416,0.882-0.629c0.412-0.307,0.801-0.623,1.197-0.937c0.234-0.186,0.48-0.367,0.709-0.555
			c0.614-0.505,1.208-1.019,1.78-1.54c7.01-6.391,11.083-17.886,13.284-31.735c0.259-1.629,0.492-3.291,0.701-4.981
			c0.731-5.915,1.167-12.174,1.38-18.584c0.092-2.747,0.142-5.523,0.158-8.311c0.005-0.929,0.007-1.86,0.005-2.792
			C287.355,211.683,287.211,206.062,286.98,200.531z"/>
	</g>
	<g id="XMLID_43_">
		<path id="XMLID_45_" style="fill:#5BCEFA;" d="M215.543,263.333c0,0-14.458-18.417-14.458-81.376h-26.23h-5.002h-26.23
			c0,62.959-14.458,81.376-14.458,81.376c0,47.368,28.832,48.824,40.688,53.239v1.537c0,0,0.922-0.188,2.501-0.68
			c1.579,0.492,2.501,0.68,2.501,0.68v-1.537C186.711,312.157,215.543,310.7,215.543,263.333z"/>
		<path id="XMLID_44_" style="fill:#48A4C8;" d="M201.085,181.957h-26.23h-2.501v135.471c1.579,0.492,2.501,0.68,2.501,0.68v-1.537
			c11.856-4.414,40.688-5.871,40.688-53.239C215.543,263.333,201.085,244.916,201.085,181.957z"/>
	</g>
	<g id="XMLID_40_">
		<path id="XMLID_42_" style="fill:#5BCEFA;" d="M173.259,120.925h-64.871c1.012,21.074,4.4,39.808,8.31,47.027
			c9.043,16.694,29.221,38.957,55.657,38.957c26.431,0,46.607-22.262,55.652-38.957c3.91-7.22,7.298-25.953,8.311-47.027
			C236.319,120.925,173.259,120.925,173.259,120.925z"/>
		<path id="XMLID_41_" style="fill:#48A4C8;" d="M173.259,120.925h-0.906v85.984c0.001,0,0.001,0,0.002,0
			c26.431,0,46.607-22.262,55.652-38.957c3.91-7.22,7.298-25.953,8.311-47.027C236.319,120.925,173.259,120.925,173.259,120.925z"/>
	</g>
	<g id="XMLID_37_">
		<path id="XMLID_39_" style="fill:#682234;" d="M289.332,344.708H55.377V304.02c0-44.943,31.347-81.376,76.29-81.376l40.688,81.376
			l40.688-81.376c44.943,0,76.29,36.433,76.29,81.376v40.688H289.332z"/>
		<path id="XMLID_38_" style="fill:#521627;" d="M213.042,222.645l-40.688,81.376v40.688h116.977v-40.688
			C289.332,259.078,257.984,222.645,213.042,222.645z"/>
	</g>
	<g id="XMLID_34_">
		<path id="XMLID_36_" style="fill:#FFFFFF;" d="M202.617,212.473v27.543l-30.264,57.12l-30.264-57.12v-27.543
			c-26.038,16.521-30.768,53.711-30.768,53.711l37.558,78.525h46.948l37.558-78.525
			C233.385,266.183,228.656,228.994,202.617,212.473z"/>
		<path id="XMLID_35_" style="fill:#DEDDE0;" d="M202.617,212.473v27.543l-30.264,57.12v47.573h23.474l37.558-78.525
			C233.385,266.183,228.656,228.994,202.617,212.473z"/>
	</g>
</g>
</svg>