<?xml version="1.0" encoding="iso-8859-1"?>
<!-- Uploaded to: SVG Repo, www.svgrepo.com, Generator: SVG Repo Mixer Tools -->
<svg height="800px" width="800px" version="1.1" id="Layer_1" xmlns="http://www.w3.org/2000/svg" xmlns:xlink="http://www.w3.org/1999/xlink" 
	 viewBox="0 0 363.71 363.71" xml:space="preserve">
<g id="XMLID_19_">
	<g id="XMLID_54_">
		<path id="XMLID_56_" style="fill:#5BCEFA;" d="M298.835,322.573v40.68H64.875v-40.68c0-30.43,14.37-56.96,37.6-70.91
			c3.98-2.41,8.23-4.44,12.72-6.04c2.32-0.84,4.69-1.56,7.13-2.16c3.45-0.86,7.02-1.49,10.69-1.85c2.66-0.28,5.38-0.42,8.15-0.42
			l40.69,24l40.69-24c6.59,0,12.89,0.78,18.84,2.27c7.15,1.77,13.8,4.55,19.84,8.2C284.455,265.613,298.835,292.143,298.835,322.573
			z"/>
		<path id="XMLID_55_" style="fill:#48A4C8;" d="M261.225,251.663c-6.04-3.65-12.69-6.43-19.84-8.2
			c-5.95-1.49-12.25-2.27-18.84-2.27l-40.69,24v98.06h116.98v-40.68C298.835,292.143,284.455,265.613,261.225,251.663z"/>
	</g>
	<g id="XMLID_49_">
		<path id="XMLID_53_" style="fill:#C64832;" d="M281.581,192.072c26.39-24.059,11.154-28.864,11.154-50.802
			C292.735,59.796,249.989,0,182.095,0S71.455,59.796,71.455,141.269c0,21.938-15.236,26.743,11.154,50.802
			C119.368,225.585,244.822,225.585,281.581,192.072z"/>
		<path id="XMLID_50_" style="fill:#B2332D;" d="M292.735,141.269C292.735,59.796,249.99,0,182.095,0
			c-0.081,0-0.16,0.003-0.24,0.003v217.202c40.633,0.033,81.31-8.344,99.726-25.133
			C307.971,168.012,292.735,163.207,292.735,141.269z"/>
	</g>
	<g id="XMLID_45_">
		<g id="XMLID_47_">
			<path id="XMLID_818_" style="fill:#5BCEFA;" d="M210.182,185.325h-26.884h-1.256h-0.379h-1.256h-26.884
				c0,74.552-36.43,67.808-36.43,67.808c0,47.368,51.162,62.392,63.313,66.806v1.537c0,0,0.533-0.11,1.446-0.359
				c0.912,0.249,1.446,0.359,1.446,0.359v-1.537c12.151-4.414,63.313-19.439,63.313-66.806
				C246.612,253.133,210.182,259.877,210.182,185.325z"/>
		</g>
		<path id="XMLID_46_" style="fill:#48A4C8;" d="M210.182,185.325h-26.884h-1.256h-0.187v135.793
			c0.911,0.249,1.443,0.358,1.443,0.358v-1.537c12.151-4.415,63.313-19.439,63.313-66.807
			C246.612,253.133,210.182,259.877,210.182,185.325z"/>
	</g>
	<g id="XMLID_42_">
		<path id="XMLID_44_" style="fill:#5BCEFA;" d="M245.787,120.518c-0.087-0.008-0.175-0.015-0.264-0.023
			c-0.205-0.018-0.41-0.036-0.623-0.056c-0.043-0.004-0.089-0.008-0.132-0.012c-0.477-0.044-0.975-0.091-1.493-0.142
			c-0.036-0.004-0.071-0.007-0.107-0.01c-0.249-0.025-0.503-0.051-0.761-0.077c-0.082-0.009-0.165-0.017-0.248-0.026
			c-0.261-0.027-0.525-0.055-0.794-0.084c-0.042-0.005-0.086-0.009-0.129-0.014c-0.879-0.095-1.802-0.202-2.765-0.318
			c-0.097-0.012-0.194-0.023-0.291-0.036c-0.294-0.036-0.591-0.073-0.893-0.111c-0.076-0.01-0.153-0.02-0.229-0.029
			c-0.995-0.127-2.028-0.266-3.094-0.418c-0.079-0.011-0.157-0.022-0.237-0.034c-0.338-0.048-0.68-0.098-1.025-0.149
			c-0.083-0.012-0.166-0.025-0.249-0.037c-1.114-0.166-2.26-0.345-3.435-0.539c-0.061-0.01-0.121-0.02-0.182-0.03
			c-0.373-0.062-0.75-0.125-1.128-0.19c-0.087-0.015-0.174-0.03-0.262-0.045c-1.236-0.213-2.499-0.442-3.786-0.689
			c-0.021-0.004-0.042-0.008-0.062-0.012c-0.403-0.077-0.808-0.156-1.215-0.237c-0.096-0.019-0.192-0.038-0.288-0.057
			c-0.408-0.081-0.817-0.164-1.229-0.249c-0.003-0.001-0.006-0.001-0.008-0.002c-1.329-0.274-2.679-0.567-4.043-0.878
			c-0.106-0.024-0.212-0.048-0.319-0.073c-0.413-0.095-0.827-0.191-1.243-0.29c-0.063-0.015-0.127-0.031-0.19-0.046
			c-1.321-0.315-2.653-0.648-3.994-1c-0.113-0.03-0.226-0.059-0.338-0.089c-0.415-0.11-0.829-0.221-1.245-0.335
			c-0.098-0.027-0.195-0.054-0.293-0.081c-1.324-0.364-2.654-0.748-3.985-1.151c-0.109-0.033-0.218-0.066-0.327-0.099
			c-0.41-0.125-0.82-0.253-1.23-0.382c-0.126-0.04-0.252-0.08-0.378-0.12c-1.311-0.417-2.62-0.853-3.926-1.311
			c-0.114-0.04-0.227-0.079-0.341-0.119c-0.393-0.139-0.785-0.28-1.177-0.423c-0.153-0.056-0.306-0.112-0.459-0.168
			c-0.395-0.145-0.79-0.292-1.184-0.441c-0.064-0.024-0.128-0.05-0.192-0.074c-0.827-0.315-1.65-0.64-2.47-0.973
			c-0.108-0.044-0.215-0.086-0.323-0.13c-0.375-0.154-0.749-0.311-1.123-0.469c-0.167-0.071-0.334-0.141-0.5-0.213
			c-0.369-0.158-0.737-0.317-1.104-0.479c-0.139-0.061-0.277-0.124-0.415-0.186c-0.755-0.337-1.505-0.682-2.25-1.036
			c-0.09-0.043-0.181-0.085-0.272-0.128c-0.345-0.165-0.688-0.334-1.031-0.504c-0.188-0.093-0.375-0.185-0.563-0.279
			c-0.331-0.166-0.661-0.333-0.989-0.503c-0.186-0.096-0.37-0.193-0.554-0.29c-0.765-0.401-1.523-0.811-2.271-1.232
			c-0.011-0.006-0.023-0.012-0.034-0.019c-8.816-4.971-16.405-11.336-21.154-19.486c-1.621-2.782-3.112-5.444-4.497-8.014
			c-7.776,16.881-25.941,37.754-38.841,43.659c0.331,24.665,4.12,47.992,8.594,56.252c9.042,16.694,29.221,38.957,55.657,38.957
			c26.431,0,46.607-22.262,55.652-38.957c4.412-8.146,8.16-30.951,8.58-55.24C245.987,120.535,245.889,120.527,245.787,120.518z"/>
		<path id="XMLID_43_" style="fill:#48A4C8;" d="M245.787,120.518c-0.087-0.008-0.175-0.015-0.264-0.023
			c-0.205-0.018-0.41-0.036-0.623-0.056c-0.043-0.004-0.089-0.008-0.132-0.012c-0.477-0.044-0.975-0.091-1.493-0.142
			c-0.036-0.004-0.071-0.007-0.107-0.01c-0.249-0.025-0.503-0.051-0.761-0.077c-0.082-0.009-0.165-0.017-0.248-0.026
			c-0.261-0.027-0.525-0.055-0.794-0.084c-0.042-0.005-0.086-0.009-0.129-0.014c-0.879-0.095-1.802-0.202-2.765-0.318
			c-0.097-0.012-0.194-0.023-0.291-0.036c-0.294-0.036-0.591-0.073-0.893-0.111c-0.076-0.01-0.153-0.02-0.229-0.029
			c-0.995-0.127-2.028-0.266-3.094-0.418c-0.079-0.011-0.157-0.022-0.237-0.034c-0.338-0.048-0.68-0.098-1.025-0.149
			c-0.083-0.012-0.166-0.025-0.249-0.037c-1.114-0.166-2.26-0.345-3.435-0.539c-0.061-0.01-0.121-0.02-0.182-0.03
			c-0.373-0.062-0.75-0.125-1.128-0.19c-0.087-0.015-0.174-0.03-0.262-0.045c-1.236-0.213-2.499-0.442-3.786-0.689
			c-0.021-0.004-0.042-0.008-0.062-0.012c-0.403-0.077-0.808-0.156-1.215-0.237c-0.096-0.019-0.192-0.038-0.288-0.057
			c-0.408-0.081-0.817-0.164-1.229-0.249c-0.003-0.001-0.006-0.001-0.008-0.002c-1.329-0.274-2.679-0.567-4.043-0.878
			c-0.106-0.024-0.212-0.048-0.319-0.073c-0.413-0.095-0.827-0.191-1.243-0.29c-0.063-0.015-0.127-0.031-0.19-0.046
			c-1.321-0.315-2.653-0.648-3.994-1c-0.113-0.03-0.226-0.059-0.338-0.089c-0.415-0.11-0.829-0.221-1.245-0.335
			c-0.098-0.027-0.195-0.054-0.293-0.081c-1.324-0.364-2.654-0.748-3.985-1.151c-0.109-0.033-0.218-0.066-0.327-0.099
			c-0.41-0.125-0.82-0.253-1.23-0.382c-0.126-0.04-0.252-0.08-0.378-0.12c-1.311-0.417-2.62-0.853-3.926-1.311
			c-0.114-0.04-0.227-0.079-0.341-0.119c-0.393-0.139-0.785-0.28-1.177-0.423c-0.153-0.056-0.306-0.112-0.459-0.168
			c-0.395-0.145-0.79-0.292-1.184-0.441c-0.064-0.024-0.128-0.05-0.192-0.074c-0.827-0.315-1.65-0.64-2.47-0.973
			c-0.108-0.044-0.215-0.086-0.323-0.13c-0.375-0.154-0.749-0.311-1.123-0.469c-0.167-0.071-0.334-0.141-0.5-0.213
			c-0.369-0.158-0.737-0.317-1.104-0.479c-0.139-0.061-0.277-0.124-0.415-0.186c-0.755-0.337-1.505-0.682-2.25-1.036
			c-0.09-0.043-0.181-0.085-0.272-0.128c-0.345-0.165-0.688-0.334-1.031-0.504c-0.188-0.093-0.375-0.185-0.563-0.279
			c-0.331-0.166-0.661-0.333-0.989-0.503c-0.186-0.096-0.37-0.193-0.554-0.29c-0.765-0.401-1.523-0.811-2.271-1.232
			c-0.011-0.006-0.023-0.012-0.034-0.019c-0.081-0.046-0.159-0.093-0.24-0.139V214.74c26.431,0,46.607-22.262,55.652-38.957
			c4.412-8.146,8.16-30.951,8.58-55.24C245.987,120.535,245.889,120.527,245.787,120.518z"/>
	</g>
	<g id="XMLID_20_">
		<g id="XMLID_35_">
			<polygon id="XMLID_39_" style="fill:#367992;" points="227.327,272.71 136.379,272.71 101.853,329.044 101.853,363.71 
				261.853,363.71 261.853,329.044 			"/>
			<path id="XMLID_36_" style="fill:#367992;" d="M153.205,274.583l-19.43,24.02l-18.58-52.98c2.32-0.84,4.69-1.56,7.13-2.16
				c3.45-0.86,7.02-1.49,10.69-1.85L153.205,274.583z"/>
		</g>
		<g id="XMLID_32_">
			<polygon id="XMLID_34_" style="fill:#2F697E;" points="227.327,272.71 181.855,272.71 181.855,363.71 261.853,363.71 
				261.853,329.044 			"/>
			<path id="XMLID_33_" style="fill:#2F697E;" d="M231.145,241.663c3.52,0.36,6.93,0.97,10.24,1.8c2.59,0.64,5.11,1.41,7.56,2.31
				l-18.53,52.83l-19.43-24.02"/>
		</g>
	</g>
</g>
</svg>