<?xml version="1.0" encoding="iso-8859-1"?>
<!-- Uploaded to: SVG Repo, www.svgrepo.com, Generator: SVG Repo Mixer Tools -->
<svg height="800px" width="800px" version="1.1" id="Layer_1" xmlns="http://www.w3.org/2000/svg" xmlns:xlink="http://www.w3.org/1999/xlink" 
	 viewBox="0 0 351.88 351.88" xml:space="preserve">
<g id="XMLID_27_">
	<g id="XMLID_57_">
		<path id="XMLID_449_" style="fill:#C64832;" d="M207.324,218.28c43.802,0,77.304-35.54,77.256-79.342c0-0.227,0-0.45,0-0.669
			C284.579,56.796,243.833,0,175.939,0S67.3,56.796,67.3,138.269c0,0.219,0,0.442,0,0.669
			c-0.048,43.802,33.454,79.342,77.256,79.342H207.324z"/>
		<path id="XMLID_452_" style="fill:#B2332D;" d="M284.579,138.269C284.579,56.796,243.833,0,175.939,0v218.28h31.385
			c43.802,0,77.304-35.54,77.256-79.342C284.579,138.712,284.579,138.489,284.579,138.269z"/>
	</g>
	<g id="XMLID_54_">
		<path id="XMLID_453_" style="fill:#C4D7B2;" d="M229.128,269.63c0,0-24.458-18.417-24.458-81.376h-26.23h-5.002h-26.23
			c0,62.959-24.458,81.376-24.458,81.376c0,47.368,38.832,48.824,50.688,53.239v1.537c0,0,0.922-0.188,2.501-0.68
			c1.579,0.492,2.501,0.68,2.501,0.68v-1.537C190.296,318.455,229.128,316.998,229.128,269.63z"/>
		<path id="XMLID_454_" style="fill:#A0C49D;" d="M204.671,188.255h-26.23h-2.501v135.471c1.579,0.492,2.501,0.68,2.501,0.68v-1.537
			c11.856-4.414,50.688-5.871,50.688-53.239C229.128,269.63,204.671,251.214,204.671,188.255z"/>
	</g>
	<g id="XMLID_51_">
		<path id="XMLID_455_" style="fill:#C4D7B2;" d="M175.939,65.598c-4.824,6.079-42.15,35.573-64.201,45.712
			c0.552,23.685,4.23,45.675,8.546,53.643c9.042,16.694,29.221,38.956,55.657,38.956c26.431,0,46.607-22.262,55.652-38.956
			c4.315-7.968,7.995-29.958,8.547-53.643C218.089,101.171,180.764,71.677,175.939,65.598z"/>
		<path id="XMLID_458_" style="fill:#A0C49D;" d="M175.939,65.598v138.311c0.001,0,0.001,0,0.002,0
			c26.431,0,46.607-22.262,55.652-38.956c4.315-7.968,7.995-29.958,8.547-53.643C218.089,101.171,180.764,71.677,175.939,65.598z"/>
	</g>
	<g id="XMLID_44_">
		<path id="XMLID_459_" style="fill:#C4C3DB;" d="M124.299,110.857c-6.316,0-8.496,11.536-8.496,11.536
			c0,15.259,10.537,27.63,27.236,27.63s32.317-30.921,31.991-32.384l-11.361-5.768c-1.312-0.666-2.763-1.013-4.235-1.013h-35.135
			V110.857z"/>
		<path id="XMLID_49_" style="fill:#9599AF;" d="M227.58,110.857c6.316,0,8.496,11.536,8.496,11.536
			c0,15.259-10.537,27.63-27.236,27.63s-32.317-30.921-31.991-32.384l12.758-5.914c1.233-0.571,2.575-0.867,3.934-0.867h34.039
			V110.857z"/>
		<path id="XMLID_460_" style="fill:#212222;" d="M240.499,121.558c-0.294-1.556-3.155-15.2-12.918-15.2h-34.038
			c-1.999,0-4.014,0.444-5.827,1.285l-11.728,5.436l-10.283-5.22c-1.934-0.981-4.103-1.5-6.271-1.5H124.3
			c-9.764,0-12.625,13.644-12.918,15.2l-0.078,0.414v0.421c0,18.617,13.347,32.129,31.736,32.129
			c7.997,0,16.214-5.194,24.423-15.437c4.029-5.028,7.008-10.023,8.478-12.656c1.47,2.633,4.449,7.628,8.478,12.656
			c8.209,10.243,16.427,15.437,24.423,15.437c18.389,0,31.736-13.512,31.736-32.129v-0.421L240.499,121.558z M143.038,145.523
			c-13.241,0-22.533-9.307-22.733-22.688c0.796-3.642,2.822-7.477,3.993-7.477h35.135c0.76,0,1.52,0.182,2.197,0.526l7.71,3.914
			C165.342,127.698,153.492,145.523,143.038,145.523z M208.841,145.523c-10.395,0-22.172-17.627-26.235-25.592l8.895-4.123
			c0.635-0.294,1.341-0.45,2.042-0.45h34.038c1.172,0,3.2,3.841,3.993,7.476C231.374,136.217,222.083,145.523,208.841,145.523z"/>
	</g>
	<path id="XMLID_41_" d="M240.499,121.558c-0.294-1.556-3.155-15.2-12.918-15.2h-34.038c-1.999,0-4.014,0.444-5.827,1.285
		l-11.728,5.436l-0.048-0.024v13.375c1.47,2.633,4.449,7.628,8.478,12.656c8.209,10.243,16.427,15.437,24.423,15.437
		c18.389,0,31.736-13.512,31.736-32.129v-0.421L240.499,121.558z M208.841,145.523c-10.395,0-22.172-17.627-26.235-25.592
		l8.895-4.123c0.635-0.294,1.341-0.45,2.042-0.45h34.038c1.172,0,3.2,3.841,3.993,7.476
		C231.374,136.217,222.083,145.523,208.841,145.523z"/>
	<g id="XMLID_34_">
		<path id="XMLID_38_" style="fill:#367992;" d="M292.918,351.88H58.963v-40.688c0-44.943,31.347-81.376,76.29-81.376
			c0,0,11.421,103.575,41.593,103.575s39.782-103.575,39.782-103.575c44.943,0,76.29,36.433,76.29,81.376V351.88z"/>
		<path id="XMLID_35_" style="fill:#2F697E;" d="M216.628,229.817c0,0-9.61,103.575-39.782,103.575
			c-0.305,0-0.605-0.028-0.906-0.049v18.537h116.977v-40.688C292.918,266.25,261.57,229.817,216.628,229.817z"/>
	</g>
	<g id="XMLID_28_">
		<path id="XMLID_470_" style="fill:#FF628B;" d="M216.863,230.296c0,35.667-18.098,107.895-40.423,107.895
			s-41.423-72.228-41.423-107.895c0-5.587,19.098,39.58,41.423,39.58S216.863,224.75,216.863,230.296z"/>
		<path id="XMLID_472_" style="fill:#C85279;" d="M176.439,269.875c-0.167,0-0.333-0.011-0.5-0.016v68.305
			c0.167,0.008,0.333,0.025,0.5,0.025c22.325,0,40.423-72.228,40.423-107.895C216.863,224.75,198.764,269.875,176.439,269.875z"/>
	</g>
</g>
</svg>