<?xml version="1.0" encoding="iso-8859-1"?>
<!-- Uploaded to: SVG Repo, www.svgrepo.com, Generator: SVG Repo Mixer Tools -->
<svg height="800px" width="800px" version="1.1" id="Layer_1" xmlns="http://www.w3.org/2000/svg" xmlns:xlink="http://www.w3.org/1999/xlink" 
	 viewBox="0 0 362.626 362.626" xml:space="preserve">
<g id="XMLID_14_">
	<g id="XMLID_51_">
		<g id="XMLID_911_">
			<path id="XMLID_912_" style="fill:#C64832;" d="M291.953,141.27c0,56.17-43.91,89.12-43.91,89.12l-66.73-56.72l-66.72,56.72
				c0,0-43.92-34.617-43.92-89.12c0-46.4,13.86-85.76,38.34-111.06c4.62-4.78,9.62-9.05,14.97-12.77
				C140.073,6.24,159.383,0,181.313,0c21.94,0,41.24,6.24,57.33,17.44c4.83,3.35,9.37,7.16,13.6,11.37
				C277.573,54.05,291.953,94.02,291.953,141.27z"/>
		</g>
		<path id="XMLID_915_" style="fill:#B2332D;" d="M252.243,28.81c-4.23-4.21-8.77-8.02-13.6-11.37C222.553,6.24,203.253,0,181.313,0
			v173.67l66.73,56.72c0,0,43.91-32.95,43.91-89.12C291.953,94.02,277.573,54.05,252.243,28.81z"/>
	</g>
	<g id="XMLID_47_">
		<g id="XMLID_916_">
			<path id="XMLID_917_" style="fill:#5BCEFA;" d="M209.642,184.476h-26.884h-1.256h-0.379h-1.256h-26.884
				c0,74.552-36.43,67.808-36.43,67.808c0,47.368,51.162,62.392,63.313,66.806v1.537c0,0,0.533-0.11,1.446-0.359
				c0.912,0.249,1.446,0.359,1.446,0.359v-1.537c12.151-4.414,63.313-19.439,63.313-66.806
				C246.072,252.284,209.642,259.028,209.642,184.476z"/>
		</g>
		<path id="XMLID_918_" style="fill:#48A4C8;" d="M209.642,184.476h-26.884h-1.256h-0.189v135.792
			c0.912,0.249,1.446,0.359,1.446,0.359v-1.537c12.151-4.414,63.313-19.439,63.313-66.806
			C246.072,252.284,209.642,259.028,209.642,184.476z"/>
	</g>
	<g id="XMLID_44_">
		<path id="XMLID_919_" style="fill:#5BCEFA;" d="M117.23,124.445c0.841,22.16,4.351,42.199,8.427,49.726
			c9.042,16.694,29.221,38.956,55.657,38.956c26.431,0,46.607-22.262,55.652-38.956c4.076-7.527,7.586-27.565,8.428-49.726
			L117.23,124.445L117.23,124.445z"/>
		<path id="XMLID_920_" style="fill:#48A4C8;" d="M181.313,124.445v88.682c0.001,0,0.001,0,0.002,0
			c26.431,0,46.607-22.262,55.652-38.957c4.076-7.526,7.586-27.565,8.428-49.726L181.313,124.445L181.313,124.445z"/>
	</g>
	<g id="XMLID_41_">
		<path id="XMLID_921_" style="fill:#FFFFFF;" d="M247.898,62.164c-22.968-35.701-60.368-33.988-66.584-33.987
			c-6.213,0-43.62-1.715-66.585,33.987c-4.468,6.945-8.093,16.744-10.773,29.125l14.66,3.175
			c2.299-10.619,5.235-18.755,8.729-24.184c17.717-27.542,53.327-27.286,53.968-27.286c0.644,0,36.28-0.21,53.97,27.286
			c3.491,5.428,6.427,13.564,8.727,24.184l14.66-3.175C255.989,78.906,252.365,69.107,247.898,62.164z"/>
		<path id="XMLID_922_" style="fill:#DEDDE0;" d="M247.898,62.164c-22.968-35.701-60.368-33.988-66.584-33.987h-0.001v14.816
			c0.644,0,36.28-0.21,53.97,27.286c3.491,5.428,6.427,13.564,8.727,24.184l14.66-3.175
			C255.989,78.906,252.365,69.107,247.898,62.164z"/>
	</g>
	<g id="XMLID_34_">
		<path id="XMLID_38_" style="fill:#367992;" d="M298.29,362.625H64.335v-40.688c0-44.943,31.347-81.376,76.29-81.376l40.688,81.376
			l40.688-81.376c44.943,0,76.29,36.433,76.29,81.376v40.688H298.29z"/>
		<path id="XMLID_926_" style="fill:#2F697E;" d="M222.001,240.562l-40.688,81.375v40.688H298.29v-40.688
			C298.29,276.995,266.943,240.562,222.001,240.562z"/>
	</g>
	<g id="XMLID_15_">
		<path id="XMLID_927_" style="fill:#FFFFFF;" d="M222.577,238.39l-11,19.543l-30.23,57.536l-30.298-57.536l-9-19.543
			c-26.038,16.521-31.768,45.711-31.768,45.711l47.558,78.525h46.948l47.558-78.525C252.344,284.1,248.615,254.911,222.577,238.39z"
			/>
		<path id="XMLID_928_" style="fill:#DEDDE0;" d="M222.577,238.39l-11,19.543l-30.23,57.536l-0.034-0.064v47.22h23.474
			l47.558-78.525C252.344,284.1,248.615,254.911,222.577,238.39z"/>
	</g>
</g>
</svg>