<?xml version="1.0" encoding="iso-8859-1"?>
<!-- Uploaded to: SVG Repo, www.svgrepo.com, Generator: SVG Repo Mixer Tools -->
<svg height="800px" width="800px" version="1.1" id="Layer_1" xmlns="http://www.w3.org/2000/svg" xmlns:xlink="http://www.w3.org/1999/xlink" 
	 viewBox="0 0 357.696 357.696" xml:space="preserve">
<g id="XMLID_11_">
	<g id="XMLID_45_">
		<path id="XMLID_1019_" style="fill:#C64832;" d="M210.233,218.28c43.802,0,77.304-35.54,77.256-79.342c0-0.227,0-0.45,0-0.669
			C287.488,56.796,246.742,0,178.848,0S70.208,56.796,70.208,138.269c0,0.219,0,0.442,0,0.669
			c-0.048,43.802,33.454,79.342,77.256,79.342H210.233z"/>
		<path id="XMLID_1022_" style="fill:#B2332D;" d="M287.488,138.269C287.488,56.796,246.742,0,178.848,0v218.28h31.385
			c43.802,0,77.304-35.54,77.256-79.342C287.488,138.712,287.488,138.489,287.488,138.269z"/>
	</g>
	<g id="XMLID_42_">
		<path id="XMLID_1023_" style="fill:#C4D7B2;" d="M207.177,175.281h-26.884h-1.256h-0.379h-1.256h-26.884
			c0,74.552-36.43,67.808-36.43,67.808c0,47.368,51.162,62.392,63.313,66.806v1.537c0,0,0.533-0.11,1.446-0.359
			c0.912,0.249,1.446,0.359,1.446,0.359v-1.537c12.151-4.414,63.313-19.439,63.313-66.806
			C243.607,243.089,207.177,249.833,207.177,175.281z"/>
		<path id="XMLID_1024_" style="fill:#A0C49D;" d="M207.177,175.281h-26.884h-1.256h-0.189v135.792
			c0.912,0.249,1.446,0.359,1.446,0.359v-1.537c12.151-4.414,63.313-19.439,63.313-66.806
			C243.607,243.089,207.177,249.833,207.177,175.281z"/>
	</g>
	<g id="XMLID_39_">
		<path id="XMLID_1025_" style="fill:#C4D7B2;" d="M242.776,115.656c-0.091-0.006-0.187-0.013-0.286-0.021
			c-0.148-0.01-0.302-0.022-0.469-0.034c-0.102-0.007-0.206-0.015-0.315-0.023c-0.18-0.013-0.367-0.028-0.565-0.043
			c-0.129-0.01-0.258-0.02-0.394-0.031c-0.211-0.016-0.433-0.034-0.662-0.052c-0.134-0.011-0.265-0.021-0.405-0.032
			c-0.262-0.021-0.539-0.044-0.822-0.067c-0.132-0.011-0.258-0.021-0.395-0.033c-0.34-0.029-0.698-0.059-1.065-0.091
			c-0.091-0.008-0.177-0.015-0.27-0.023c-0.434-0.038-0.886-0.078-1.355-0.121c-0.048-0.004-0.092-0.008-0.14-0.012
			c-1.053-0.096-2.193-0.203-3.409-0.323c-0.036-0.003-0.074-0.007-0.11-0.011c-0.559-0.055-1.134-0.113-1.724-0.174
			c-0.122-0.012-0.249-0.026-0.372-0.039c-0.51-0.052-1.028-0.107-1.56-0.163c-0.173-0.019-0.35-0.038-0.525-0.057
			c-0.504-0.054-1.016-0.11-1.539-0.168c-0.186-0.021-0.374-0.042-0.562-0.063c-0.518-0.058-1.042-0.117-1.577-0.179
			c-0.214-0.025-0.428-0.05-0.644-0.075c-0.527-0.062-1.062-0.125-1.604-0.189c-0.221-0.027-0.441-0.053-0.665-0.08
			c-0.562-0.068-1.131-0.138-1.707-0.21c-0.212-0.027-0.422-0.052-0.635-0.079c-0.615-0.077-1.238-0.157-1.868-0.239
			c-0.182-0.023-0.361-0.046-0.544-0.07c-0.701-0.092-1.412-0.187-2.13-0.284c-0.121-0.016-0.24-0.032-0.361-0.049
			c-2.575-0.35-5.253-0.736-8.013-1.16c-0.072-0.011-0.145-0.023-0.217-0.034c-0.828-0.127-1.663-0.258-2.504-0.393
			c-0.187-0.03-0.376-0.061-0.564-0.091c-0.728-0.117-1.458-0.236-2.194-0.359c-0.253-0.042-0.507-0.085-0.761-0.128
			c-0.68-0.114-1.361-0.23-2.047-0.349c-0.285-0.049-0.571-0.1-0.857-0.15c-0.663-0.116-1.327-0.234-1.995-0.355
			c-0.302-0.054-0.603-0.109-0.906-0.165c-0.665-0.122-1.331-0.245-2-0.371c-0.3-0.056-0.599-0.113-0.9-0.17
			c-0.683-0.13-1.367-0.263-2.053-0.398c-0.289-0.057-0.577-0.113-0.867-0.171c-0.718-0.143-1.437-0.289-2.158-0.437
			c-0.256-0.052-0.511-0.104-0.767-0.157c-0.788-0.164-1.577-0.331-2.368-0.501c-0.192-0.041-0.384-0.081-0.576-0.123
			c-27.403-5.937-55.698-15.67-65.718-31.299c-5.057,33.582,0.023,77.854,6.563,89.929c9.042,16.694,29.221,38.957,55.657,38.957
			c26.431,0,46.607-22.262,55.652-38.957c4.098-7.565,7.624-27.773,8.443-50.072C242.888,115.664,242.838,115.66,242.776,115.656z"
			/>
		<path id="XMLID_1026_" style="fill:#A0C49D;" d="M242.776,115.656c-0.091-0.006-0.187-0.013-0.286-0.021
			c-0.148-0.01-0.302-0.022-0.469-0.034c-0.102-0.007-0.206-0.015-0.315-0.023c-0.18-0.013-0.367-0.028-0.565-0.043
			c-0.129-0.01-0.258-0.02-0.394-0.031c-0.211-0.016-0.433-0.034-0.662-0.052c-0.134-0.011-0.265-0.021-0.405-0.032
			c-0.262-0.021-0.539-0.044-0.822-0.067c-0.132-0.011-0.258-0.021-0.395-0.033c-0.34-0.029-0.698-0.059-1.065-0.091
			c-0.091-0.008-0.177-0.015-0.27-0.023c-0.434-0.038-0.886-0.078-1.355-0.121c-0.048-0.004-0.092-0.008-0.14-0.012
			c-1.053-0.096-2.193-0.203-3.409-0.323c-0.036-0.003-0.074-0.007-0.11-0.011c-0.559-0.055-1.134-0.113-1.724-0.174
			c-0.122-0.012-0.249-0.026-0.372-0.039c-0.51-0.052-1.028-0.107-1.56-0.163c-0.173-0.019-0.35-0.038-0.525-0.057
			c-0.504-0.054-1.016-0.11-1.539-0.168c-0.186-0.021-0.374-0.042-0.562-0.063c-0.518-0.058-1.042-0.117-1.577-0.179
			c-0.214-0.025-0.428-0.05-0.644-0.075c-0.527-0.062-1.062-0.125-1.604-0.189c-0.221-0.027-0.441-0.053-0.665-0.08
			c-0.562-0.068-1.131-0.138-1.707-0.21c-0.212-0.027-0.422-0.052-0.635-0.079c-0.615-0.077-1.238-0.157-1.868-0.239
			c-0.182-0.023-0.361-0.046-0.544-0.07c-0.701-0.092-1.412-0.187-2.13-0.284c-0.121-0.016-0.24-0.032-0.361-0.049
			c-2.575-0.35-5.253-0.736-8.013-1.16c-0.072-0.011-0.145-0.023-0.217-0.034c-0.828-0.127-1.663-0.258-2.504-0.393
			c-0.187-0.03-0.376-0.061-0.564-0.091c-0.728-0.117-1.458-0.236-2.194-0.359c-0.253-0.042-0.507-0.085-0.761-0.128
			c-0.68-0.114-1.361-0.23-2.047-0.349c-0.285-0.049-0.571-0.1-0.857-0.15c-0.663-0.116-1.327-0.234-1.995-0.355
			c-0.302-0.054-0.603-0.109-0.906-0.165c-0.665-0.122-1.331-0.245-2-0.371c-0.3-0.056-0.599-0.113-0.9-0.17
			c-0.683-0.13-1.367-0.263-2.053-0.398c-0.289-0.057-0.577-0.113-0.867-0.171c-0.718-0.143-1.437-0.289-2.158-0.437
			c-0.256-0.052-0.511-0.104-0.767-0.157c-0.788-0.164-1.577-0.331-2.368-0.501c-0.192-0.041-0.384-0.081-0.576-0.123
			c-1.166-0.253-2.333-0.515-3.5-0.781v98.368c0,0,0.001,0,0.002,0c26.431,0,46.607-22.262,55.652-38.956
			c4.098-7.566,7.624-27.774,8.443-50.072C242.888,115.664,242.838,115.66,242.776,115.656z"/>
	</g>
	<g id="XMLID_36_">
		<path id="XMLID_1027_" style="fill:#DFE0F2;" d="M258.858,322.816v34.67h-160l-37,0.21v-41.35c0-30.43,14.38-56.96,37.6-70.91
			c6.05-3.65,12.69-6.43,19.85-8.2c0.4-0.1,0.81-0.2,1.22-0.29c4.79-1.11,9.79-1.77,14.99-1.93c0.22-0.01,0.45-0.01,0.67-0.02
			c-0.02,0.07-0.04,0.13-0.06,0.2c-1.15,4.02-1.78,8.26-1.78,12.65c0,25.2,20.37,45.63,45.5,45.63c18.51,0,34.42-11.08,41.53-26.99
			h2.96l6.31,10.3L258.858,322.816z"/>
		<path id="XMLID_1028_" style="fill:#C6C8D7;" d="M258.238,245.437c-6.05-3.65-12.69-6.43-19.85-8.2c-0.4-0.1-0.8-0.19-1.2-0.28
			c-4.37-1.02-8.93-1.65-13.66-1.88c1.18,4.05,1.82,8.33,1.82,12.77c0,25.2-20.37,45.63-45.5,45.63c-0.23,0-0.46-0.01-0.7-0.01
			c-0.09-0.01-0.19-0.01-0.29-0.01v64.03h116.98v-41.14C295.838,285.917,281.458,259.386,258.238,245.437z"/>
	</g>
	<g id="XMLID_12_">
		<path id="XMLID_1029_" style="fill:#367992;" d="M237.338,236.966c-5.03-1.19-10.31-1.85-15.8-1.97c1.12,3.95,1.64,8.7,1.64,12.79
			c0,6.31-1.3,12.43-3.87,18.17c-1.49,3.34-3.39,6.49-5.67,9.38l-0.07,0.1c-0.3,0.37-0.6,0.74-0.93,1.13l-0.07,0.09
			c-0.95,1.1-1.97,2.19-3.05,3.24l-0.3,0.28c-0.32,0.3-0.64,0.6-0.96,0.88l-0.26,0.23c-0.6,0.52-1.23,1.05-1.88,1.56l-0.41,0.32
			c-0.3,0.23-0.61,0.46-0.9,0.67c-0.2,0.15-0.4,0.29-0.6,0.43c-0.3,0.21-0.6,0.41-0.89,0.61c-0.23,0.15-0.45,0.29-0.68,0.44
			l-0.1,0.06c-0.45,0.29-0.9,0.56-1.36,0.84c-0.28,0.16-0.57,0.33-0.86,0.49c-0.27,0.15-0.54,0.29-0.79,0.43
			c-0.31,0.16-0.62,0.32-0.96,0.49l-0.15,0.08c-0.19,0.09-0.39,0.19-0.58,0.28c-0.52,0.25-1.06,0.5-1.59,0.73l-0.63,0.25
			c-0.39,0.16-0.78,0.32-1.19,0.47c-0.23,0.09-0.47,0.18-0.7,0.26c-0.42,0.15-0.85,0.29-1.28,0.43l-0.55,0.18
			c-0.6,0.19-1.2,0.36-1.8,0.52l-0.57,0.14c-0.46,0.11-0.92,0.22-1.4,0.32l-0.61,0.13c-0.55,0.11-1.1,0.21-1.63,0.29l-0.34,0.06
			c-0.65,0.1-1.31,0.18-1.94,0.25l-0.58,0.05c-0.51,0.05-1.02,0.09-1.53,0.12l-0.6,0.03c-0.65,0.03-1.31,0.06-1.96,0.05
			c-0.18,0-0.35,0-0.53-0.01l-0.53-0.01c-23.91-0.52-43.36-20.46-43.36-44.46c0-4.23,0.6-8.45,1.8-12.53l-0.2-0.06l-0.61-0.18
			c-5.2,0.16-10.2,0.82-14.99,1.93c-0.67,3.57-1,7.2-1,10.84c0,15.66,6.02,30.44,16.95,41.62
			c6.497,6.64,14.298,11.557,22.831,14.534c-2.111,1.663-4.208,3.511-6.263,5.55c-2.925,2.931-5.5,5.971-7.65,9.032
			c-2.107,2.979-3.974,6.173-5.396,9.241c-0.676,1.461-1.256,2.853-1.728,4.14c-0.463,1.273-0.837,2.435-1.107,3.435
			c-0.562,2-0.739,3.329-0.747,3.385l-0.339,2.583l2.583-0.339c0.056-0.007,1.385-0.185,3.367-0.742
			c1.023-0.277,2.185-0.652,3.456-1.114c1.292-0.473,2.684-1.054,4.139-1.726c3.062-1.42,6.256-3.286,9.233-5.392
			c3.066-2.154,6.107-4.73,9.045-7.662c2.929-2.953,5.497-5.998,7.633-9.045c1.205-1.708,2.317-3.484,3.324-5.26
			c1.007,1.777,2.118,3.551,3.32,5.255c2.14,3.052,4.708,6.097,7.644,9.057c2.931,2.925,5.972,5.5,9.032,7.651
			c2.983,2.109,6.178,3.975,9.241,5.396c1.453,0.671,2.845,1.252,4.141,1.727c1.268,0.461,2.429,0.835,3.436,1.108
			c1.999,0.561,3.328,0.739,3.384,0.746l2.583,0.339l-0.339-2.583c-0.008-0.056-0.186-1.385-0.742-3.366
			c-0.275-1.019-0.649-2.181-1.114-3.457c-0.47-1.284-1.05-2.675-1.727-4.139c-1.422-3.064-3.287-6.259-5.392-9.233
			c-2.154-3.066-4.729-6.106-7.662-9.044c-2.048-2.032-4.142-3.877-6.249-5.538c0.124-0.044,0.25-0.083,0.374-0.128
			c0.33-0.11,0.65-0.23,0.95-0.35c0.53-0.19,1.05-0.4,1.59-0.63l0.23-0.09c0.2-0.08,0.4-0.16,0.6-0.25c0.72-0.3,1.44-0.63,2.14-0.97
			c0.3-0.14,0.59-0.28,0.88-0.43l0.11-0.05c0.42-0.21,0.84-0.43,1.27-0.66c0.36-0.19,0.72-0.38,1.07-0.58
			c0.39-0.22,0.78-0.44,1.16-0.66c0.61-0.36,1.22-0.74,1.9-1.17c0.31-0.2,0.62-0.39,0.94-0.6c0.4-0.27,0.8-0.55,1.2-0.83
			c0.26-0.19,0.53-0.37,0.8-0.57c0.41-0.3,0.82-0.6,1.2-0.89c0.15-0.12,0.29-0.23,0.43-0.34l0.13-0.11
			c0.87-0.67,1.71-1.37,2.52-2.09l0.33-0.28c0.44-0.39,0.87-0.79,1.29-1.18l0.41-0.4c1.42-1.37,2.78-2.81,4.03-4.28l0.09-0.1
			c0.43-0.51,0.85-1.02,1.27-1.56l0.11-0.14c1.95-2.47,3.69-5.08,5.21-7.82c0.86-1.53,1.65-3.11,2.37-4.71
			c3.43-7.68,5.17-15.86,5.17-24.29C238.178,244.386,237.928,240.326,237.338,236.966z"/>
		<path id="XMLID_1032_" style="fill:#2F697E;" d="M237.338,236.966c-5.03-1.19-10.31-1.85-15.8-1.97c1.12,3.95,1.64,8.7,1.64,12.79
			c0,6.31-1.3,12.43-3.87,18.17c-1.49,3.34-3.39,6.49-5.67,9.38l-0.07,0.1c-0.3,0.37-0.6,0.74-0.93,1.13l-0.07,0.09
			c-0.95,1.1-1.97,2.19-3.05,3.24l-0.3,0.28c-0.32,0.3-0.64,0.6-0.96,0.88l-0.26,0.23c-0.6,0.52-1.23,1.05-1.88,1.56l-0.41,0.32
			c-0.3,0.23-0.61,0.46-0.9,0.67c-0.2,0.15-0.4,0.29-0.6,0.43c-0.3,0.21-0.6,0.41-0.89,0.61c-0.23,0.15-0.45,0.29-0.68,0.44
			l-0.1,0.06c-0.45,0.29-0.9,0.56-1.36,0.84c-0.28,0.16-0.57,0.33-0.86,0.49c-0.27,0.15-0.54,0.29-0.79,0.43
			c-0.31,0.16-0.62,0.32-0.96,0.49l-0.15,0.08c-0.19,0.09-0.39,0.19-0.58,0.28c-0.52,0.25-1.06,0.5-1.59,0.73l-0.63,0.25
			c-0.39,0.16-0.78,0.32-1.19,0.47c-0.23,0.09-0.47,0.18-0.7,0.26c-0.42,0.15-0.85,0.29-1.28,0.43l-0.55,0.18
			c-0.6,0.19-1.2,0.36-1.8,0.52l-0.57,0.14c-0.46,0.11-0.92,0.22-1.4,0.32l-0.61,0.13c-0.55,0.11-1.1,0.21-1.63,0.29l-0.34,0.06
			c-0.65,0.1-1.31,0.18-1.94,0.25l-0.58,0.05c-0.51,0.05-1.02,0.09-1.53,0.12l-0.6,0.03c-0.65,0.03-1.31,0.06-1.96,0.05
			c-0.031,0-0.06-0.002-0.09-0.002v17.76c1.007,1.777,2.118,3.551,3.32,5.255c2.14,3.052,4.708,6.097,7.644,9.057
			c2.931,2.925,5.972,5.5,9.032,7.651c2.983,2.109,6.178,3.975,9.241,5.396c1.453,0.671,2.845,1.252,4.141,1.727
			c1.268,0.461,2.429,0.835,3.436,1.108c1.999,0.561,3.328,0.739,3.384,0.746l2.583,0.339l-0.339-2.583
			c-0.008-0.056-0.186-1.385-0.742-3.366c-0.275-1.019-0.649-2.181-1.114-3.457c-0.47-1.284-1.05-2.675-1.727-4.139
			c-1.422-3.064-3.287-6.259-5.392-9.233c-2.154-3.066-4.729-6.106-7.662-9.044c-2.048-2.032-4.142-3.877-6.249-5.538
			c0.124-0.044,0.25-0.083,0.374-0.128c0.33-0.11,0.65-0.23,0.95-0.35c0.53-0.19,1.05-0.4,1.59-0.63l0.23-0.09
			c0.2-0.08,0.4-0.16,0.6-0.25c0.72-0.3,1.44-0.63,2.14-0.97c0.3-0.14,0.59-0.28,0.88-0.43l0.11-0.05c0.42-0.21,0.84-0.43,1.27-0.66
			c0.36-0.19,0.72-0.38,1.07-0.58c0.39-0.22,0.78-0.44,1.16-0.66c0.61-0.36,1.22-0.74,1.9-1.17c0.31-0.2,0.62-0.39,0.94-0.6
			c0.4-0.27,0.8-0.55,1.2-0.83c0.26-0.19,0.53-0.37,0.8-0.57c0.41-0.3,0.82-0.6,1.2-0.89c0.15-0.12,0.29-0.23,0.43-0.34l0.13-0.11
			c0.87-0.67,1.71-1.37,2.52-2.09l0.33-0.28c0.44-0.39,0.87-0.79,1.29-1.18l0.41-0.4c1.42-1.37,2.78-2.81,4.03-4.28l0.09-0.1
			c0.43-0.51,0.85-1.02,1.27-1.56l0.11-0.14c1.95-2.47,3.69-5.08,5.21-7.82c0.86-1.53,1.65-3.11,2.37-4.71
			c3.43-7.68,5.17-15.86,5.17-24.29C238.178,244.386,237.928,240.326,237.338,236.966z"/>
	</g>
</g>
</svg>